<svg version="1.1" xmlns="http://www.w3.org/2000/svg" x="0" y="0" viewBox="0 0 74 63" style="enable-background:new 0 0 74 63" xml:space="preserve">
  <style>
    .st0{fill:#3bd4ae}.st1{fill:#fff}
  </style>
  <path class="st0" d="M23.5 0v26.9H37V13.5L23.5 0z"/>
  <path class="st1" d="M50.5 26.9V0H37v13.5l13.5 13.4z"/>
  <g>
    <path class="st1" d="M3.7 42v11.5H0V36.3h3.8l7.9 11.1V36.3h3.7v17.2h-3.5L3.7 42zM32 50.5h-7.7l-1.1 3h-4l6.6-17.2h4.6L37 53.5h-4l-1-3zm-6.7-3.1H31l-2.8-7.9-2.9 7.9zM42.4 48.3a7.4 7.4 0 0 0 5.5 2.3c2 0 3-1 3-1.9 0-1.3-1.5-1.7-3.5-2.2-2.8-.6-6.4-1.4-6.4-5.2 0-2.9 2.5-5.2 6.5-5.2 2.7 0 5 .8 6.7 2.4l-2 2.7a7.21 7.21 0 0 0-4.9-1.9c-1.7 0-2.5.7-2.5 1.7 0 1.2 1.4 1.5 3.4 2 2.8.6 6.4 1.5 6.4 5.3 0 3.1-2.2 5.5-6.9 5.5-3.3 0-5.7-1.1-7.3-2.7l2-2.8zM70.3 46.3h-8.1v7.2h-3.7V36.3h3.7V43h8.1v-6.7H74v17.2h-3.7v-7.2z"/>
    <g>
      <path class="st0" d="m10.3 59.2-1.4 3.7h-.5L7 59.2v3.7H5.8v-5.1h1.5L8.5 61l1.2-3.2h1.5v5.1h-1.1l.2-3.7zM19.5 62h-2.3l-.3.9h-1.2l2-5.1H19l2 5.1h-1.2l-.3-.9zm-2-1h1.7l-.8-2.3-.9 2.3zM27.2 61h-.8v1.8h-1.1v-5.1h2.4c1.1 0 1.7.7 1.7 1.6 0 .9-.6 1.4-1.1 1.5l1.2 1.9h-1.2L27.2 61zm.3-2.3h-1.1v1.4h1.1c.4 0 .8-.3.8-.7s-.3-.7-.8-.7zM34.1 57.8h1.1v5.1h-1.1v-5.1zM41.2 58.7h-1.5v-1h4.1v1h-1.5v4.2h-1.1v-4.2zM48.3 57.8h1.1v5.1h-1.1v-5.1zM58.7 59.2l-1.4 3.7h-.5l-1.4-3.7v3.7h-1.1v-5.1h1.5L57 61l1.2-3.2h1.5v5.1h-1.1l.1-3.7zM64.6 57.8h3.6v.9h-2.5v1.1h2.5v.9h-2.5v1.2h2.5v.9h-3.6v-5z"/>
    </g>
  </g>
</svg>